<svg xmlns="http://www.w3.org/2000/svg" width="118.671" height="81.185" viewBox="0 0 118.671 81.185">
  <g id="Group_141" data-name="Group 141" transform="translate(-61.182 -60.431)">
    <path id="Path_2" data-name="Path 2" d="M32.7,29.52a79.247,79.247,0,0,1,20.866-5.851c6.369-.828,10.821-1.4,16,.57,2.175.828,4.556,2.382,9.372,5.437,4.712,3,5.8,4.142,9.372,6.213a60.46,60.46,0,0,0,9.527,4.66,27.347,27.347,0,0,1-6.213-6.42,29.091,29.091,0,0,1-3.728-7.2,80.308,80.308,0,0,1,12.064,5.281,82.4,82.4,0,0,1,34.483,35.26,91.786,91.786,0,0,0-15.378-26.717c-8.7-10.355-17.915-16.517-24.542-20.866-4.66-3.055-8.75-5.281-11.7-6.834-2.641-1.968-2.9-3.624-2.9-4.3C79.765,5.237,85.046,1.094,93.537-.2A84.4,84.4,0,0,0,72.671,3.528,91.4,91.4,0,0,0,32.7,29.52Z" transform="translate(45.413 60.631)" fill="#00bbc3"/>
    <g id="Group_56" data-name="Group 56">
      <path id="Path_3" data-name="Path 3" d="M27.3,88.4c2.013,2.071,4.027,4.2,6.04,6.271a73.184,73.184,0,0,0-9.722,9.952A75.739,75.739,0,0,0,14.3,119.35a57.168,57.168,0,0,1,6.386-21.17A55.462,55.462,0,0,1,27.3,88.4Z" transform="translate(55.109 13.982)" fill="#00a22a"/>
      <path id="Path_4" data-name="Path 4" d="M64.739,56.1a17.771,17.771,0,0,1,5.851,4.5,15.545,15.545,0,0,1,1.191,1.553,19.661,19.661,0,0,0-6.627-.777A19.912,19.912,0,0,0,53.4,66.4a75.276,75.276,0,0,0,10.148,6.627c5.229,2.848,13.876,7.456,25.733,8.388A55.565,55.565,0,0,0,109.163,79.3,54.308,54.308,0,0,0,64.739,56.1Z" transform="translate(35.431 33.481)" fill="#00a22a"/>
    </g>
    <path id="Path_1" data-name="Path 1" d="M0,26A100.81,100.81,0,0,0,9.734,43.345,89.662,89.662,0,0,0,29.823,64.781C36.4,69.7,45.46,76.43,49.705,78.035a11.059,11.059,0,0,1,3.883,2.537,5.91,5.91,0,0,1,1.968,3.314c.155,2.8-3.987,5.126-6.99,6.834a30.924,30.924,0,0,1-7.2,2.9,89.7,89.7,0,0,0,27.649-6.213,89.863,89.863,0,0,0,32.93-22.989,90.68,90.68,0,0,1-15.585,4.09,81.785,81.785,0,0,1-30.6-.207C35.57,64.159,22.73,52.872,17.966,48.626A86.241,86.241,0,0,1,0,26Z" transform="translate(61.182 47.997)" fill="#00bbc3"/>
  </g>
</svg>
