<svg id="Group_136" data-name="Group 136" xmlns="http://www.w3.org/2000/svg" width="167.665" height="22.521" viewBox="0 0 167.665 22.521">
  <path id="Path_753" data-name="Path 753" d="M51.69,343.686c0,3.984-2.1,6.2-5.81,6.2H43.611v6.7H40.9V337.6h5.035C49.532,337.544,51.69,339.813,51.69,343.686Zm-2.822,0c0-2.324-1-3.541-3.043-3.541H43.556v7.083h2.269C47.872,347.283,48.868,346.121,48.868,343.686Z" transform="translate(-40.9 -337.212)" fill="#00bbc3"/>
  <path id="Path_754" data-name="Path 754" d="M64.6,337.5h2.767v7.581H69.3c3.763,0,5.755,2.269,5.755,5.7,0,3.763-1.992,5.7-5.755,5.7H64.6Zm4.593,16.435c1.937,0,3.043-1.051,3.043-3.154a2.76,2.76,0,0,0-3.043-3.1H67.422v6.253ZM77.327,337.5h2.711v18.98H77.327Z" transform="translate(-51.486 -337.168)" fill="#00bbc3"/>
  <path id="Path_755" data-name="Path 755" d="M110.2,350.725c0,3.818-2.047,5.755-5.7,5.755H99.3V337.5h9.85v2.6h-7.138v4.925h2.49C108.154,344.97,110.2,347.239,110.2,350.725Zm-2.767,0a2.826,2.826,0,0,0-3.043-3.154h-2.324v6.364h2.324A2.9,2.9,0,0,0,107.434,350.725Z" transform="translate(-66.984 -337.168)" fill="#00bbc3"/>
  <path id="Path_756" data-name="Path 756" d="M122.9,350.18v-6.917c0-3.984,2.158-6.364,5.81-6.364s5.81,2.435,5.81,6.364v6.917c0,3.984-2.158,6.364-5.81,6.364S122.9,354.165,122.9,350.18Zm8.8,0v-6.917c0-2.379-1.051-3.707-2.988-3.707-1.992,0-2.988,1.328-2.988,3.707v6.917c0,2.379,1,3.707,2.988,3.707C130.647,353.888,131.7,352.56,131.7,350.18Z" transform="translate(-77.525 -336.9)" fill="#00bbc3"/>
  <path id="Path_757" data-name="Path 757" d="M160.7,351.057c0,3.375-2.158,5.423-5.478,5.423H149.8V337.5h5.146a4.765,4.765,0,0,1,5.036,5.146,4.643,4.643,0,0,1-1.937,4.039A4.527,4.527,0,0,1,160.7,351.057Zm-8.19-10.956v5.423h2.158c1.66,0,2.49-.941,2.49-2.767,0-1.771-.83-2.656-2.6-2.656Zm5.368,10.956c0-1.937-1.217-2.933-3.154-2.933h-2.213v5.81h2.324C156.883,353.935,157.879,352.994,157.879,351.057Z" transform="translate(-89.54 -337.168)" fill="#00bbc3"/>
  <path id="Path_758" data-name="Path 758" d="M173.6,350.18v-6.917c0-3.984,2.158-6.364,5.81-6.364s5.81,2.435,5.81,6.364v6.917c0,3.984-2.158,6.364-5.81,6.364S173.6,354.165,173.6,350.18Zm8.8,0v-6.917c0-2.379-1.051-3.707-2.988-3.707-1.992,0-2.988,1.328-2.988,3.707v6.917c0,2.379,1,3.707,2.988,3.707C181.347,353.888,182.4,352.56,182.4,350.18Z" transform="translate(-100.17 -336.9)" fill="#00bbc3"/>
  <path id="Path_759" data-name="Path 759" d="M211.642,353.935v5.755h-2.711v-3.154h-9.02v3.154H197.2v-5.755h1.107c1.383-1.383,2.047-4.261,2.158-7.249l.332-9.186h9.13v16.379h1.715ZM207.271,340.1H203.4l-.277,7.36a14.7,14.7,0,0,1-1.494,6.474h5.589V340.1Z" transform="translate(-110.711 -337.168)" fill="#00bbc3"/>
  <path id="Path_760" data-name="Path 760" d="M237.494,356.48H227.7V337.5h2.711v16.379h5.257V337.5h2.711v16.379H240.1v5.755h-2.711V356.48Z" transform="translate(-124.334 -337.168)" fill="#00bbc3"/>
  <path id="Path_761" data-name="Path 761" d="M264.173,353.979v2.6H254.6V337.6h9.3v2.6h-6.585v5.478h6.032v2.545h-6.032v5.81h6.862Z" transform="translate(-136.349 -337.213)" fill="#00bbc3"/>
  <path id="Path_762" data-name="Path 762" d="M288.09,337.5v18.98h-2.711v-8.3h-5.367v8.3H277.3V337.5h2.711v8.079h5.367V337.5Z" transform="translate(-146.488 -337.168)" fill="#00bbc3"/>
  <path id="Path_763" data-name="Path 763" d="M311.78,340.1H307.8V356.48h-2.767V340.1H301.1v-2.6h10.68Z" transform="translate(-157.118 -337.168)" fill="#00bbc3"/>
  <path id="Path_764" data-name="Path 764" d="M335.19,343.686c0,3.984-2.1,6.2-5.81,6.2h-2.269v6.7H324.4V337.6h5.035C333.088,337.544,335.19,339.813,335.19,343.686Zm-2.767,0c0-2.324-1-3.541-3.043-3.541h-2.269v7.083h2.269C331.428,347.283,332.424,346.121,332.424,343.686Z" transform="translate(-167.525 -337.212)" fill="#00bbc3"/>
</svg>
