<svg id="Group_137" data-name="Group 137" xmlns="http://www.w3.org/2000/svg" width="167.167" height="8.466" viewBox="0 0 167.167 8.466">
  <path id="Path_765" data-name="Path 765" d="M43.031,395.364H39.6V389h.387v5.976h2.435V389h.387v5.976h.553v1.439h-.387v-1.051Z" transform="translate(-39.6 -388.613)" fill="#00bbc3"/>
  <path id="Path_766" data-name="Path 766" d="M50.943,395.231a1.454,1.454,0,0,1-1.6,1.494,1.416,1.416,0,0,1-1.439-1.6V393.4a1.428,1.428,0,0,1,1.494-1.6,1.455,1.455,0,0,1,1.494,1.6v1.051h-2.6v.664c0,.775.387,1.217,1.107,1.217s1.107-.387,1.162-1.162h.387ZM48.287,393.4v.719H50.5V393.4a1.079,1.079,0,0,0-1.107-1.217C48.675,392.187,48.287,392.575,48.287,393.4Z" transform="translate(-43.307 -389.863)" fill="#00bbc3"/>
  <path id="Path_767" data-name="Path 767" d="M58.067,391.9v4.759h-.387V394.39H55.687v2.269H55.3V391.9h.387V394h1.992v-2.1Z" transform="translate(-46.612 -389.908)" fill="#00bbc3"/>
  <path id="Path_768" data-name="Path 768" d="M64.467,392.287H63.249v4.371h-.387v-4.371H61.7V391.9h2.767Z" transform="translate(-49.471 -389.908)" fill="#00bbc3"/>
  <path id="Path_769" data-name="Path 769" d="M71.088,393.46v1.6c0,1.051-.553,1.66-1.439,1.66a1.444,1.444,0,0,1-1.162-.609v2.158H68.1v-6.364h.332l.055.553a1.242,1.242,0,0,1,1.162-.664A1.463,1.463,0,0,1,71.088,393.46Zm-.387,0c0-.885-.443-1.328-1.107-1.328-.553,0-1.107.443-1.107,1.383v1.6a1.149,1.149,0,0,0,1.051,1.273c.664,0,1.107-.443,1.107-1.273v-1.66Z" transform="translate(-52.329 -389.863)" fill="#00bbc3"/>
  <path id="Path_770" data-name="Path 770" d="M82.267,396.659h-.387v-4.371H79.887v4.371H79.5V391.9h2.767v4.759Z" transform="translate(-57.421 -389.908)" fill="#00bbc3"/>
  <path id="Path_771" data-name="Path 771" d="M86.6,395.12V393.4a1.4,1.4,0,0,1,1.494-1.6,1.428,1.428,0,0,1,1.494,1.6v1.715a1.5,1.5,0,1,1-2.988,0Zm2.6,0V393.4c0-.83-.443-1.217-1.107-1.217a1.079,1.079,0,0,0-1.107,1.217v1.715c0,.83.443,1.217,1.107,1.217C88.813,396.337,89.2,395.895,89.2,395.12Z" transform="translate(-60.592 -389.863)" fill="#00bbc3"/>
  <path id="Path_772" data-name="Path 772" d="M100.988,393.46v1.6c0,1.051-.553,1.66-1.439,1.66a1.444,1.444,0,0,1-1.162-.609v2.158H98v-6.364h.332l.055.553a1.242,1.242,0,0,1,1.162-.664A1.463,1.463,0,0,1,100.988,393.46Zm-.387,0c0-.885-.443-1.328-1.107-1.328-.553,0-1.107.443-1.107,1.383v1.6a1.149,1.149,0,0,0,1.051,1.273c.664,0,1.107-.443,1.107-1.273v-1.66Z" transform="translate(-65.684 -389.863)" fill="#00bbc3"/>
  <path id="Path_773" data-name="Path 773" d="M108.322,395.265a1.454,1.454,0,0,1-1.494,1.494H105.5V392h.387v1.771h.941A1.454,1.454,0,0,1,108.322,395.265Zm-.387,0a1.046,1.046,0,0,0-1.107-1.107h-.941v2.213h.941A1.109,1.109,0,0,0,107.935,395.265ZM109.429,392v4.7h-.387V392Z" transform="translate(-69.034 -389.953)" fill="#00bbc3"/>
  <path id="Path_774" data-name="Path 774" d="M117.888,392.173V393.5a1.428,1.428,0,0,1-1.494,1.6,1.455,1.455,0,0,1-1.494-1.6v-2.767a1.872,1.872,0,0,1,1.494-1.826,1.155,1.155,0,0,0,.885-.609l.332.221a1.452,1.452,0,0,1-1.107.775c-.609.166-1.217.443-1.217,1.383v.5a1.227,1.227,0,0,1,1.217-.719A1.505,1.505,0,0,1,117.888,392.173Zm-.387.111c0-.885-.387-1.328-1.051-1.328-.609,0-1.162.387-1.162,1.328v1.273a1.112,1.112,0,1,0,2.213,0Z" transform="translate(-73.233 -388.3)" fill="#00bbc3"/>
  <path id="Path_775" data-name="Path 775" d="M122.1,395.12V393.4a1.4,1.4,0,0,1,1.494-1.6,1.428,1.428,0,0,1,1.494,1.6v1.715a1.428,1.428,0,0,1-1.494,1.6A1.455,1.455,0,0,1,122.1,395.12Zm2.656,0V393.4c0-.83-.443-1.217-1.107-1.217a1.079,1.079,0,0,0-1.107,1.217v1.715c0,.83.443,1.217,1.107,1.217A1.079,1.079,0,0,0,124.756,395.12Z" transform="translate(-76.449 -389.863)" fill="#00bbc3"/>
  <path id="Path_776" data-name="Path 776" d="M132.622,395.375c0,.83-.553,1.328-1.494,1.328H129.8V392h1.273a1.213,1.213,0,0,1,1.383,1.217,1.166,1.166,0,0,1-.609,1A1.223,1.223,0,0,1,132.622,395.375Zm-2.49-1.328h.885a.847.847,0,0,0,.941-.83c0-.5-.332-.83-1-.83h-.83Zm2.047,1.328c0-.609-.387-.941-1.107-.941h-1v1.937h.941C131.792,396.371,132.179,395.984,132.179,395.375Z" transform="translate(-79.888 -389.953)" fill="#00bbc3"/>
  <path id="Path_777" data-name="Path 777" d="M136.4,395.12V393.4a1.4,1.4,0,0,1,1.494-1.6,1.428,1.428,0,0,1,1.494,1.6v1.715a1.5,1.5,0,1,1-2.988,0Zm2.6,0V393.4c0-.83-.443-1.217-1.107-1.217a1.079,1.079,0,0,0-1.107,1.217v1.715c0,.83.443,1.217,1.107,1.217C138.613,396.337,139,395.895,139,395.12Z" transform="translate(-82.836 -389.863)" fill="#00bbc3"/>
  <path id="Path_778" data-name="Path 778" d="M142.6,396.371h.332a3.84,3.84,0,0,0,.553-2.1c.055-.775.055-1.494.111-2.269h2.379v4.371h.5v1.439h-.387v-1.051h-3.043v1.051h-.387v-1.439Zm2.933,0v-3.984h-1.6c0,.664-.055,1.273-.055,1.937a4.885,4.885,0,0,1-.443,2.047Z" transform="translate(-85.605 -389.953)" fill="#00bbc3"/>
  <path id="Path_779" data-name="Path 779" d="M150.8,395.12V393.4a1.416,1.416,0,0,1,1.439-1.6c.941,0,1.494.609,1.494,1.66h-.387c0-.83-.443-1.273-1.107-1.273s-1.051.443-1.051,1.217v1.715c0,.775.387,1.217,1.051,1.217s1.107-.443,1.107-1.273h.387a1.473,1.473,0,0,1-1.494,1.66A1.416,1.416,0,0,1,150.8,395.12Z" transform="translate(-89.267 -389.863)" fill="#00bbc3"/>
  <path id="Path_780" data-name="Path 780" d="M159.867,392.287h-1.217v4.371h-.387v-4.371H157.1V391.9h2.767Z" transform="translate(-92.081 -389.908)" fill="#00bbc3"/>
  <path id="Path_781" data-name="Path 781" d="M166.422,395.375c0,.83-.553,1.328-1.494,1.328H163.6V392h1.273a1.213,1.213,0,0,1,1.383,1.217,1.166,1.166,0,0,1-.609,1A1.223,1.223,0,0,1,166.422,395.375Zm-2.49-1.328h.885a.847.847,0,0,0,.941-.83c0-.5-.332-.83-1-.83h-.83Zm2.1,1.328c0-.609-.387-.941-1.107-.941h-1v1.937h.941C165.647,396.371,166.035,395.984,166.035,395.375Z" transform="translate(-94.984 -389.953)" fill="#00bbc3"/>
  <path id="Path_782" data-name="Path 782" d="M172.509,391.9l-1.66,5.423c-.166.609-.443,1.051-1,1.051h-.277v-.387h.221c.387,0,.553-.277.664-.719l.332-1.051-1.494-4.261h.443l1.273,3.707,1.107-3.707h.387Z" transform="translate(-97.53 -389.908)" fill="#00bbc3"/>
  <path id="Path_783" data-name="Path 783" d="M180.455,391.9h.387v4.039h0a7.7,7.7,0,0,1,.332-.719l1.66-3.32h.387v4.759h-.387v-4.039h0a6.983,6.983,0,0,0-.387.885l-1.66,3.209H180.4V391.9Z" transform="translate(-102.488 -389.908)" fill="#00bbc3"/>
  <path id="Path_784" data-name="Path 784" d="M194.788,392.173V393.5a1.428,1.428,0,0,1-1.494,1.6,1.455,1.455,0,0,1-1.494-1.6v-2.767a1.872,1.872,0,0,1,1.494-1.826,1.155,1.155,0,0,0,.885-.609l.332.221a1.452,1.452,0,0,1-1.107.775c-.609.166-1.217.443-1.217,1.383v.5a1.227,1.227,0,0,1,1.217-.719A1.505,1.505,0,0,1,194.788,392.173Zm-.387.111c0-.885-.387-1.328-1.051-1.328-.609,0-1.162.387-1.162,1.328v1.273a1.112,1.112,0,1,0,2.213,0Z" transform="translate(-107.58 -388.3)" fill="#00bbc3"/>
  <path id="Path_785" data-name="Path 785" d="M199.1,395.12V393.4a1.4,1.4,0,0,1,1.494-1.6,1.428,1.428,0,0,1,1.494,1.6v1.715a1.5,1.5,0,1,1-2.988,0Zm2.6,0V393.4c0-.83-.443-1.217-1.107-1.217a1.079,1.079,0,0,0-1.107,1.217v1.715c0,.83.443,1.217,1.107,1.217A1.079,1.079,0,0,0,201.7,395.12Z" transform="translate(-110.84 -389.863)" fill="#00bbc3"/>
  <path id="Path_786" data-name="Path 786" d="M209.488,393.46v1.6c0,1.051-.553,1.66-1.439,1.66a1.444,1.444,0,0,1-1.162-.609v2.158H206.5v-6.364h.332l.055.553a1.242,1.242,0,0,1,1.162-.664C208.935,391.8,209.488,392.409,209.488,393.46Zm-.387,0c0-.885-.443-1.328-1.107-1.328-.553,0-1.107.443-1.107,1.383v1.6a1.149,1.149,0,0,0,1.051,1.273c.664,0,1.107-.443,1.107-1.273v-1.66Z" transform="translate(-114.146 -389.863)" fill="#00bbc3"/>
  <path id="Path_787" data-name="Path 787" d="M216.822,395.165a1.423,1.423,0,0,1-1.494,1.494H214V391.9h.387v1.715h.941A1.5,1.5,0,0,1,216.822,395.165Zm-.387,0a1.046,1.046,0,0,0-1.107-1.107h-.941v2.269h.941A1.122,1.122,0,0,0,216.435,395.165Z" transform="translate(-117.496 -389.908)" fill="#00bbc3"/>
  <path id="Path_788" data-name="Path 788" d="M223.488,392.173V393.5a1.428,1.428,0,0,1-1.494,1.6,1.455,1.455,0,0,1-1.494-1.6v-2.767a1.872,1.872,0,0,1,1.494-1.826,1.155,1.155,0,0,0,.885-.609l.332.221a1.452,1.452,0,0,1-1.107.775c-.609.166-1.217.443-1.217,1.383v.5a1.227,1.227,0,0,1,1.217-.719C222.99,390.513,223.488,391.122,223.488,392.173Zm-.387.111c0-.885-.387-1.328-1.051-1.328-.609,0-1.162.387-1.162,1.328v1.273a1.112,1.112,0,1,0,2.213,0Z" transform="translate(-120.399 -388.3)" fill="#00bbc3"/>
  <path id="Path_789" data-name="Path 789" d="M230.843,395.231a1.454,1.454,0,0,1-1.6,1.494,1.416,1.416,0,0,1-1.439-1.6V393.4a1.428,1.428,0,0,1,1.494-1.6,1.455,1.455,0,0,1,1.494,1.6v1.051h-2.6v.664c0,.775.387,1.217,1.107,1.217s1.107-.387,1.162-1.162h.387Zm-2.656-1.826v.719H230.4V393.4a1.079,1.079,0,0,0-1.107-1.217C228.575,392.187,228.187,392.575,228.187,393.4Z" transform="translate(-123.659 -389.863)" fill="#00bbc3"/>
  <path id="Path_790" data-name="Path 790" d="M239,395.12V393.4a1.416,1.416,0,0,1,1.439-1.6c.941,0,1.494.609,1.494,1.66h-.387c0-.83-.443-1.273-1.107-1.273s-1.051.443-1.051,1.217v1.715c0,.775.387,1.217,1.051,1.217s1.107-.443,1.107-1.273h.387a1.473,1.473,0,0,1-1.494,1.66A1.416,1.416,0,0,1,239,395.12Z" transform="translate(-128.662 -389.863)" fill="#00bbc3"/>
  <path id="Path_791" data-name="Path 791" d="M253.088,392.173V393.5a1.428,1.428,0,0,1-1.494,1.6,1.455,1.455,0,0,1-1.494-1.6v-2.767a1.872,1.872,0,0,1,1.494-1.826,1.155,1.155,0,0,0,.885-.609l.332.221a1.452,1.452,0,0,1-1.107.775c-.609.166-1.217.443-1.217,1.383v.5a1.227,1.227,0,0,1,1.217-.719C252.59,390.513,253.088,391.122,253.088,392.173Zm-.387.111c0-.885-.387-1.328-1.051-1.328-.609,0-1.162.387-1.162,1.328v1.273a1.112,1.112,0,1,0,2.213,0Z" transform="translate(-133.62 -388.3)" fill="#00bbc3"/>
  <path id="Path_792" data-name="Path 792" d="M257.4,395.12V393.4a1.4,1.4,0,0,1,1.494-1.6,1.428,1.428,0,0,1,1.494,1.6v1.715a1.5,1.5,0,1,1-2.988,0Zm2.6,0V393.4c0-.83-.443-1.217-1.107-1.217a1.079,1.079,0,0,0-1.107,1.217v1.715c0,.83.443,1.217,1.107,1.217A1.079,1.079,0,0,0,260,395.12Z" transform="translate(-136.88 -389.863)" fill="#00bbc3"/>
  <path id="Path_793" data-name="Path 793" d="M263.9,396.371c.5,0,.609-.664.719-1.494.055-.775.111-1.66.111-2.877h2.324v4.759h-.387v-4.371h-1.549c0,1.107-.055,2.047-.111,2.6-.111,1.107-.387,1.826-1.107,1.826Z" transform="translate(-139.783 -389.953)" fill="#00bbc3"/>
  <path id="Path_794" data-name="Path 794" d="M274.743,395.231a1.454,1.454,0,0,1-1.6,1.494,1.416,1.416,0,0,1-1.439-1.6V393.4a1.428,1.428,0,0,1,1.494-1.6,1.455,1.455,0,0,1,1.494,1.6v1.051h-2.6v.664c0,.775.387,1.217,1.107,1.217s1.107-.387,1.162-1.162h.387Zm-2.656-1.826v.719H274.3V393.4a1.079,1.079,0,0,0-1.107-1.217C272.53,392.187,272.087,392.575,272.087,393.4Z" transform="translate(-143.267 -389.863)" fill="#00bbc3"/>
  <path id="Path_795" data-name="Path 795" d="M281.443,395.286a1.41,1.41,0,0,1-1.494,1.439,1.483,1.483,0,0,1-1.549-1.383h.387a1.021,1.021,0,0,0,1.107,1A1.032,1.032,0,0,0,281,395.286c0-.553-.387-.941-1.162-.941h-.664v-.387h.664a.876.876,0,0,0,1-.885.858.858,0,0,0-.941-.885c-.664,0-.941.387-1,1h-.387a1.279,1.279,0,0,1,1.383-1.383,1.266,1.266,0,0,1,1.328,1.273,1.051,1.051,0,0,1-.719,1.051A1.173,1.173,0,0,1,281.443,395.286Z" transform="translate(-146.26 -389.863)" fill="#00bbc3"/>
  <path id="Path_796" data-name="Path 796" d="M288.367,391.9v4.759h-.387V394.39h-1.992v2.269H285.6V391.9h.387V394h1.992v-2.1Z" transform="translate(-149.476 -389.908)" fill="#00bbc3"/>
  <path id="Path_797" data-name="Path 797" d="M294.877,391.9v4.759h-.387v-1.826H293.6l-1.162,1.826H292l1.162-1.826a1.469,1.469,0,0,1,.387-2.877h1.328Zm-.387.387H293.6a1,1,0,0,0-1.051,1.107.991.991,0,0,0,1,1.107h.941Z" transform="translate(-152.334 -389.908)" fill="#00bbc3"/>
  <path id="Path_798" data-name="Path 798" d="M302.807,391.9v4.759h-.387v-4.039h0a7.832,7.832,0,0,1-.443,1l-.83,1.715h-.387l-.83-1.715c-.166-.332-.277-.664-.443-1h0v4.039H299.1V391.9h.387l1.162,2.435.221.553h0l.221-.553,1.162-2.435Z" transform="translate(-155.505 -389.908)" fill="#00bbc3"/>
  <path id="Path_799" data-name="Path 799" d="M308.055,391.9h.387v4.039h0a7.691,7.691,0,0,1,.332-.719l1.66-3.32h.387v4.759h-.387v-4.039h0a6.979,6.979,0,0,0-.387.885l-1.66,3.209H308V391.9Z" transform="translate(-159.48 -389.908)" fill="#00bbc3"/>
  <path id="Path_800" data-name="Path 800" d="M322.388,393.46v1.6c0,1.051-.553,1.66-1.439,1.66a1.444,1.444,0,0,1-1.162-.609v2.158H319.4v-6.364h.332l.055.553a1.242,1.242,0,0,1,1.162-.664A1.463,1.463,0,0,1,322.388,393.46Zm-.387,0c0-.885-.443-1.328-1.107-1.328-.553,0-1.107.443-1.107,1.383v1.6a1.149,1.149,0,0,0,1.051,1.273c.664,0,1.107-.443,1.107-1.273v-1.66Z" transform="translate(-164.572 -389.863)" fill="#00bbc3"/>
  <path id="Path_801" data-name="Path 801" d="M329.722,395.265a1.454,1.454,0,0,1-1.494,1.494H326.9V392h.387v1.771h.941A1.454,1.454,0,0,1,329.722,395.265Zm-.387,0a1.046,1.046,0,0,0-1.107-1.107h-.941v2.213h.941A1.148,1.148,0,0,0,329.335,395.265ZM330.829,392v4.7h-.387V392Z" transform="translate(-167.922 -389.953)" fill="#00bbc3"/>
  <path id="Path_802" data-name="Path 802" d="M339.288,392.173V393.5a1.428,1.428,0,0,1-1.494,1.6,1.455,1.455,0,0,1-1.494-1.6v-2.767a1.872,1.872,0,0,1,1.494-1.826,1.155,1.155,0,0,0,.885-.609l.332.221a1.452,1.452,0,0,1-1.107.775c-.609.166-1.217.443-1.217,1.383v.5a1.227,1.227,0,0,1,1.217-.719A1.505,1.505,0,0,1,339.288,392.173Zm-.443.111c0-.885-.387-1.328-1.051-1.328-.609,0-1.162.387-1.162,1.328v1.273a1.112,1.112,0,1,0,2.213,0Z" transform="translate(-172.121 -388.3)" fill="#00bbc3"/>
</svg>
